inDegrees=no
num_controls=7
num_derivatives=13
num_iterations=232
num_multipliers=7
num_parameters=0
num_slacks=7
num_states=26
objective=0.450811
objective_accelerations=0.048304
objective_balance=0.006241
objective_effort=0.032856
objective_height=0.359143
objective_ligament=0.004266
solver_duration=4261.297196
status=Restoration_Failed
success=false
DataType=double
version=3
OpenSimVersion=4.5
endheader
time	/jointset/ground_pelvis/pelvis_tilt/value	/jointset/ground_pelvis/pelvis_tx/value	/jointset/ground_pelvis/pelvis_ty/value	/jointset/hip_l/hip_flexion_l/value	/jointset/hip_l/hip_adduction_l/value	/jointset/hip_l/hip_rotation_l/value	/jointset/back/lumbar_extension/value	/jointset/patellofemoral_l/patellar_flexion_l/value	/jointset/knee_l/knee_flexion_l/value	/jointset/knee_l/knee_adduction_l/value	/jointset/knee_l/knee_rotation_l/value	/jointset/ankle_l/ankle_angle_l/value	/jointset/subtalar_l/subtalar_angle_l/value	/jointset/ground_pelvis/pelvis_tilt/speed	/jointset/ground_pelvis/pelvis_tx/speed	/jointset/ground_pelvis/pelvis_ty/speed	/jointset/hip_l/hip_flexion_l/speed	/jointset/hip_l/hip_adduction_l/speed	/jointset/hip_l/hip_rotation_l/speed	/jointset/back/lumbar_extension/speed	/jointset/patellofemoral_l/patellar_flexion_l/speed	/jointset/knee_l/knee_flexion_l/speed	/jointset/knee_l/knee_adduction_l/speed	/jointset/knee_l/knee_rotation_l/speed	/jointset/ankle_l/ankle_angle_l/speed	/jointset/subtalar_l/subtalar_angle_l/speed	/forceset/tau_hip_flexion_l	/forceset/tau_hip_adduction_l	/forceset/tau_hip_rotation_l	/forceset/tau_knee_flexion_l	/forceset/tau_ankle_angle_l	/forceset/tau_subtalar_angle_l	/forceset/tau_lumbar_extension	lambda_cid13_p0	lambda_cid13_p1	lambda_cid13_p2	lambda_cid13_p3	lambda_cid13_p4	lambda_cid13_p5	lambda_cid14_p0	/jointset/ground_pelvis/pelvis_tilt/accel	/jointset/ground_pelvis/pelvis_tx/accel	/jointset/ground_pelvis/pelvis_ty/accel	/jointset/hip_l/hip_flexion_l/accel	/jointset/hip_l/hip_adduction_l/accel	/jointset/hip_l/hip_rotation_l/accel	/jointset/back/lumbar_extension/accel	/jointset/patellofemoral_l/patellar_flexion_l/accel	/jointset/knee_l/knee_flexion_l/accel	/jointset/knee_l/knee_adduction_l/accel	/jointset/knee_l/knee_rotation_l/accel	/jointset/ankle_l/ankle_angle_l/accel	/jointset/subtalar_l/subtalar_angle_l/accel	gamma_cid13_p0	gamma_cid13_p1	gamma_cid13_p2	gamma_cid13_p3	gamma_cid13_p4	gamma_cid13_p5	gamma_cid14_p0
1.5	-0.3717810022642377	-0.03830244040749239	0.7735686371736614	1.182070978240628	-0.2574389374648048	0.02043886389444213	-0.3097874748650016	0.7556886459854718	0.7556886459854796	-0.1025504580190827	0.09038502643039122	0.1387206060367114	0.02960488068171473	0.5628197966565059	0.1757139867048697	0.4691227485110478	-2.100672700492133	-0.03181797426217294	-0.4721283513509477	0.5110888744950526	-1.910206281038775	-1.910206281038778	-0.06762831603251959	-0.04716115100602593	-0.4557736685515384	-0.1342827405030365	-0.2043854654568138	0.02110135259274157	-0.01670231434696654	-0.2366843863921886	0.09630589223444135	0.03989061401384614	0.1943578111728114	-6.525290365966518	-15.85126636654723	1.746971786394796	0.5565401547844389	-607.2614558272259	-61.21789313933017	-22.97030112130986	0.636069869497458	0.4904193848952249	-0.3557481723049933	-1.45748194323013	0.1866081325671246	-0.393695849160793	1.391031843535449	-1.275254374573972	-1.275254374573972	-0.2603548473151255	0.09166678724105298	-0.5458117913876452	0.1415771075209106	2.753114794939014e-07	-4.27452931169513e-07	-2.581514765194502e-06	-3.175250514319532e-07	3.91923495654878e-07	6.03676363135418e-08	2.714363122871676e-07
1.51	-0.3661214706425915	-0.03652092441364253	0.7782411661474743	1.160993506901884	-0.2577487983873449	0.01570170320877486	-0.304607856733247	0.7365248123177328	0.7365248123177821	-0.1032439574179063	0.08991638904852291	0.1341359559866459	0.02826800998651964	0.5690018406917062	0.180570930161433	0.4652886181109409	-2.114537910273687	-0.03014365665920334	-0.4752612250337128	0.5247921761490979	-1.922293641424822	-1.922293641424822	-0.07107255956677272	-0.04657078926951019	-0.4610780197465937	-0.1330661018864203	-0.1978474786374684	0.02100766406835344	-0.01677377841839089	-0.2343611023485936	0.09782097892189967	0.03989212586912419	0.189185784042692	-5.823148065792963	-16.03108136060307	1.839853097865741	0.3328346671964818	-603.3936289533669	-61.21372740718072	-24.08948264087142	0.5965882498109266	0.480520703311433	-0.4113170283833896	-1.308459952128596	0.1598864103261906	-0.2663835190642646	1.353592970954899	-1.135515946049321	-1.135515946049196	-0.3868022528348114	0.04257889020962674	-0.5110387702338379	0.1158899956332514	3.047195980070906e-07	-3.756028850794062e-07	-2.738871677700441e-06	-3.351169567365262e-07	4.390544839023979e-07	1.468851847715154e-07	2.927212500953562e-07
1.52	-0.3604026552647351	-0.03469140120977347	0.782872539506383	1.139785899574016	-0.2580415075666485	0.01093455370806714	-0.2992924828560255	0.7172480972310964	0.7172480972311071	-0.1039719678812249	0.08945362688864301	0.1295006040272934	0.0269441422288713	0.5746765478980832	0.1853154287087114	0.460891625530255	-2.126699898315686	-0.02838762560966266	-0.4781261143656129	0.5382400235878084	-1.932782564828044	-1.932782564828041	-0.07453052895524333	-0.04598610659890894	-0.4659140504084302	-0.1316821529937465	-0.1913094918181295	0.020913975543988	-0.01684524249073204	-0.2320378183049192	0.09933606560938028	0.03989363772443727	0.1840137569125607	-5.124106162200414	-16.21199662181644	1.934788690070785	0.09045969871363121	-599.5842735067938	-61.28994175551863	-25.20299186192518	0.5346025037334334	0.4679304030378025	-0.468320608420814	-1.116837595319249	0.2029508218813298	-0.3400989789875701	1.339941000468802	-0.9555669780091923	-0.9555669780091934	-0.2631000181588244	0.09053097405791374	-0.4521476847445847	0.175039162732217	3.293959926851843e-07	-3.1460513484591e-07	-2.864505500354853e-06	-3.450545294409738e-07	4.784871443957695e-07	2.35915413235687e-07	3.111842896221642e-07
1.53	-0.35462961388597	-0.03281505521541089	0.7874571758883067	1.118465182191431	-0.2583164430767999	0.00614016507296229	-0.2938441633936574	0.6978744995414021	0.6978744995414468	-0.104734892045152	0.08899667229963647	0.1248192120506259	0.02563472417457442	0.5798404289730241	0.1899282786262627	0.4559450752052652	-2.137143893723252	-0.02659119214640396	-0.4807041085055597	0.5513627561407787	-1.941658433172121	-1.941658433172119	-0.07805518475085818	-0.04541175460682872	-0.4702829531980972	-0.1301791278301614	-0.184616028242987	0.0206666903903134	-0.01681763486846535	-0.2299082420193726	0.1009902848516031	0.0397272174045292	0.1786839131224716	-4.393766799741376	-16.31749605707647	2.008603406572292	-0.103062862957966	-595.8263979866191	-61.27621629093927	-26.31058679670142	0.4936099846219534	0.4540689889682725	-0.5213032978181428	-0.9631902517324253	0.1697084587181813	-0.2091654380452125	1.289272471646461	-0.8118827581255827	-0.8118827581257623	-0.3974754117218429	0.04040563662787278	-0.4170893875993563	0.1416709679382533	3.490449307884892e-07	-2.438879489600627e-07	-2.956433540042016e-06	-3.468593737577883e-07	5.097403316503584e-07	3.276153642064441e-07	3.266490622250052e-07
1.54	-0.3488076678814144	-0.03089335938130299	0.7919896505563253	1.097049022907102	-0.2585730704823114	0.001321493335176803	-0.2882664499879706	0.6784204859692086	0.6784204859692162	-0.1055331281772478	0.08854536489545835	0.1200965654837544	0.02434108372686706	0.5844574730578673	0.1943853966577732	0.4504592827492586	-2.145788278661115	-0.02472600467633258	-0.4829827349073308	0.5641188122511916	-1.948865741336946	-1.948865741336943	-0.08159292260486478	-0.04485666962098338	-0.4741649684486362	-0.1285266316759077	-0.1779225646678659	0.02041940523664008	-0.01679002724703297	-0.2277786657337479	0.1026445040938519	0.0395607970846358	0.1733540693323596	-3.66690808823216	-16.42440030491054	2.084944922595127	-0.3139477633865437	-592.1349065751399	-61.35225638167966	-27.40427340406791	0.4252351057144634	0.4367840258291533	-0.5761690346242031	-0.7569155013780414	0.2167016232438708	-0.2802254313522139	1.266605711957709	-0.6218549421587013	-0.6218549421587014	-0.2657164298373372	0.08667757281078434	-0.3547701769196276	0.2049333608657248	3.636746259481931e-07	-1.671001342427031e-07	-3.016361269445947e-06	-3.42146494479441e-07	5.325704133734513e-07	4.170515282741987e-07	3.390035014128061e-07
